<!-- Generator: Adobe Illustrator 22.0.1, SVG Export Plug-In  -->
<svg version="1.1"
	 xmlns="http://www.w3.org/2000/svg" xmlns:xlink="http://www.w3.org/1999/xlink" xmlns:a="http://ns.adobe.com/AdobeSVGViewerExtensions/3.0/"
	 x="0px" y="0px" width="1312.646px" height="749.662px" viewBox="0 0 1312.646 749.662"
	 style="enable-background:new 0 0 1312.646 749.662;" xml:space="preserve">
<style type="text/css">
	.st0{fill:#2727FF;}
</style>
<defs>
</defs>
<g>
	<path class="st0" d="M1312.646,483.686c0-146.895-119.083-265.977-265.972-265.977c-26.151,0-51.393,3.839-75.264,10.87
		C932.684,105.925,818.01,17,682.551,17c-104.582,0-196.778,53.003-251.2,133.61c-20.679-12.368-44.855-19.493-70.707-19.493
		c-76.192,0-137.96,61.77-137.96,137.963c0,3.672,0.188,7.296,0.469,10.896C109.813,297.337,23,395.255,23,513.449
		c0,122.859,93.803,223.773,213.693,235.116l0.062,1.096h836.476l0.063-1.33C1207.686,734.975,1312.646,621.592,1312.646,483.686z"
		/>
	<path class="st0" d="M1289.646,466.686c0-146.895-119.083-265.977-265.972-265.977c-26.151,0-51.393,3.839-75.264,10.87
		C909.684,88.925,795.01,0,659.551,0c-104.582,0-196.778,53.003-251.2,133.61c-20.679-12.368-44.855-19.493-70.707-19.493
		c-76.192,0-137.96,61.77-137.96,137.963c0,3.672,0.188,7.296,0.469,10.896C86.813,280.337,0,378.255,0,496.449
		c0,122.859,93.803,223.774,213.693,235.116l0.062,1.096h836.476l0.063-1.33C1184.686,717.975,1289.646,604.592,1289.646,466.686z"
		/>
</g>
</svg>