<!-- Generator: Adobe Illustrator 22.1.0, SVG Export Plug-In  -->
<svg version="1.1"
	 xmlns="http://www.w3.org/2000/svg" xmlns:xlink="http://www.w3.org/1999/xlink" xmlns:a="http://ns.adobe.com/AdobeSVGViewerExtensions/3.0/"
	 x="0px" y="0px" width="1329.15px" height="1013.743px" viewBox="0 0 1329.15 1013.743"
	 style="enable-background:new 0 0 1329.15 1013.743;" xml:space="preserve">
<style type="text/css">
	.st0{fill:#D6D6D6;}
	.st1{fill:#C5F7FF;}
</style>
<defs>
</defs>
<g>
	<path class="st0" d="M1278.066,640.332c32.091-43.944,51.083-98.064,51.083-156.646c0-146.893-119.082-265.976-265.97-265.976
		c-26.152,0-51.393,3.837-75.264,10.87C949.188,105.926,834.515,17,699.055,17c-104.581,0-196.777,53.003-251.199,133.61
		c-20.679-12.368-44.857-19.492-70.708-19.492c-76.191,0-137.959,61.77-137.959,137.962c0,3.676,0.188,7.297,0.468,10.896
		c-70.106,10.738-130.035,52.318-165.572,110.437C41.992,434.355,23,488.477,23,547.058c0,146.896,119.081,265.976,265.97,265.976
		c26.152,0,51.393-3.835,75.265-10.867c38.727,122.654,153.4,211.577,288.861,211.577c104.581,0,196.777-53.001,251.198-133.608
		c20.68,12.369,44.857,19.492,70.708,19.492c76.191,0,137.959-61.769,137.959-137.962c0-3.675-0.188-7.296-0.467-10.896
		C1182.6,740.028,1242.525,698.448,1278.066,640.332z"/>
	<path class="st1" d="M1255.066,623.332c32.091-43.944,51.083-98.064,51.083-156.646c0-146.893-119.082-265.976-265.97-265.976
		c-26.152,0-51.393,3.837-75.264,10.87C926.188,88.926,811.515,0,676.055,0C571.474,0,479.277,53.003,424.856,133.61
		c-20.679-12.368-44.857-19.492-70.708-19.492c-76.191,0-137.959,61.77-137.959,137.962c0,3.676,0.188,7.297,0.468,10.896
		C146.55,273.715,86.622,315.295,51.084,373.413C18.992,417.355,0,471.477,0,530.058c0,146.896,119.081,265.976,265.97,265.976
		c26.152,0,51.393-3.835,75.265-10.867c38.727,122.654,153.4,211.577,288.861,211.577c104.581,0,196.777-53.001,251.198-133.608
		c20.68,12.369,44.857,19.492,70.708,19.492c76.191,0,137.959-61.769,137.959-137.962c0-3.675-0.188-7.296-0.467-10.896
		C1159.6,723.028,1219.525,681.448,1255.066,623.332z"/>
</g>
</svg>