<!-- Generator: Adobe Illustrator 22.0.1, SVG Export Plug-In  -->
<svg version="1.1"
	 xmlns="http://www.w3.org/2000/svg" xmlns:xlink="http://www.w3.org/1999/xlink" xmlns:a="http://ns.adobe.com/AdobeSVGViewerExtensions/3.0/"
	 x="0px" y="0px" width="1284.441px" height="715.973px" viewBox="0 0 1284.441 715.973"
	 style="enable-background:new 0 0 1284.441 715.973;" xml:space="preserve">
<style type="text/css">
	.st0{fill:#D6D6D6;}
	.st1{fill:#FFFFFF;}
</style>
<defs>
</defs>
<g>
	<path class="st0" d="M1060.838,370.67c-26.525,0-59.797-0.467-95.685-0.258c6.577-21.359,10.079-43.64,10.079-66.554
		C975.233,145.43,808.813,17,603.514,17C403.8,17,240.909,138.529,232.174,290.977C111.844,315.107,23,399.5,23,499.914
		C23,619.13,148.239,715.31,302.724,715.778c216.131,0.656,382.732-0.352,508.812-2.85c71.651,1.865,154.295,2.85,249.302,2.85
		c123.492,0,223.603-77.255,223.603-172.554C1284.441,447.927,1184.331,370.67,1060.838,370.67z"/>
	<path class="st1" d="M1037.838,353.67c-26.525,0-59.797-0.467-95.685-0.258c6.577-21.359,10.079-43.64,10.079-66.554
		C952.233,128.43,785.813,0,580.514,0C380.8,0,217.909,121.529,209.174,273.977C88.844,298.107,0,382.5,0,482.914
		C0,602.13,125.239,698.31,279.724,698.778c216.131,0.656,382.732-0.352,508.812-2.85c71.651,1.865,154.295,2.85,249.302,2.85
		c123.492,0,223.603-77.255,223.603-172.554C1261.441,430.927,1161.331,353.67,1037.838,353.67z"/>
</g>
</svg>