<!-- Generator: Adobe Illustrator 22.0.1, SVG Export Plug-In  -->
<svg version="1.1"
	 xmlns="http://www.w3.org/2000/svg" xmlns:xlink="http://www.w3.org/1999/xlink" xmlns:a="http://ns.adobe.com/AdobeSVGViewerExtensions/3.0/"
	 x="0px" y="0px" width="1259.896px" height="740.295px" viewBox="0 0 1259.896 740.295"
	 style="enable-background:new 0 0 1259.896 740.295;" xml:space="preserve">
<style type="text/css">
	.st0{fill:#A5A5A5;}
</style>
<defs>
</defs>
<g>
	<path class="st0" d="M1136.606,385.448c4.87-21.112,7.519-43.023,7.519-65.536C1144.125,152.62,1002.268,17,827.283,17
		C706.928,17,602.25,81.159,548.619,175.652c-32.145-16.945-69.08-26.611-108.385-26.611c-124.167,0-224.82,96.229-224.82,214.937
		c0,3.132,0.11,6.238,0.248,9.338h-0.73C108.932,373.316,23,455.471,23,556.804c0,101.338,85.932,183.491,191.931,183.491h853.038
		c105.994,0,191.926-82.152,191.926-183.491C1259.896,478.597,1208.69,411.86,1136.606,385.448z"/>
	<path class="st0" d="M1113.606,368.448c4.87-21.112,7.519-43.023,7.519-65.536C1121.125,135.62,979.268,0,804.283,0
		C683.928,0,579.25,64.159,525.619,158.652c-32.145-16.945-69.08-26.611-108.385-26.611c-124.167,0-224.82,96.229-224.82,214.937
		c0,3.132,0.11,6.238,0.248,9.338h-0.73C85.932,356.316,0,438.471,0,539.804c0,101.338,85.932,183.491,191.931,183.491h853.038
		c105.994,0,191.926-82.152,191.926-183.491C1236.896,461.597,1185.69,394.86,1113.606,368.448z"/>
</g>
</svg>