<!-- Generator: Adobe Illustrator 22.0.1, SVG Export Plug-In  -->
<svg version="1.1"
	 xmlns="http://www.w3.org/2000/svg" xmlns:xlink="http://www.w3.org/1999/xlink" xmlns:a="http://ns.adobe.com/AdobeSVGViewerExtensions/3.0/"
	 x="0px" y="0px" width="1306.147px" height="884.292px" viewBox="0 0 1306.147 884.292"
	 style="enable-background:new 0 0 1306.147 884.292;" xml:space="preserve">
<style type="text/css">
	.st0{fill:#FF7155;}
</style>
<defs>
</defs>
<path class="st0" d="M1198.478,323.51c-4.856-120.673-104.171-217.026-226.036-217.026c-8.264,0-16.414,0.471-24.447,1.337
	C877.665,41.006,782.583,0,677.928,0c-88.294,0-169.766,29.184-235.312,78.419c-3.311-0.205-6.64-0.348-10.002-0.348
	c-71.967,0-132.656,48.107-151.778,113.902c-14.743-4.546-30.402-7.001-46.637-7.001c-87.309,0-158.083,70.775-158.083,158.083
	c0,14.302,1.933,28.147,5.493,41.325c-11.51,9.123-21.765,19.155-30.525,29.957C18.992,447.468,0,488.273,0,532.439
	c0,92.992,83.961,171.19,197.839,193.879c13.977,73.011,78.137,128.194,155.224,128.194c30.361,0,58.712-8.577,82.794-23.415
	c52.583,33.188,120.297,53.194,194.239,53.194c62.774,0,121.074-14.411,169.434-39.066c21.749,11.265,46.42,17.67,72.607,17.67
	c55.818,0,104.839-28.956,132.971-72.64c49.826-15.685,84.852-52.764,84.852-96.016c0-2.769-0.188-5.502-0.467-8.216
	c70.109-8.095,130.036-39.446,165.572-83.264c32.092-33.131,51.083-73.935,51.083-118.102
	C1306.147,418.623,1263.805,360.049,1198.478,323.51z"/>
</svg>