<!-- Generator: Adobe Illustrator 22.1.0, SVG Export Plug-In  -->
<svg version="1.1"
	 xmlns="http://www.w3.org/2000/svg" xmlns:xlink="http://www.w3.org/1999/xlink" xmlns:a="http://ns.adobe.com/AdobeSVGViewerExtensions/3.0/"
	 x="0px" y="0px" width="1228.529px" height="698.779px" viewBox="0 0 1228.529 698.779"
	 style="enable-background:new 0 0 1228.529 698.779;" xml:space="preserve">
<style type="text/css">
	.st0{fill:#C5F7FF;}
</style>
<defs>
</defs>
<path class="st0" d="M1228.529,526.225c0-84.477-60.721-154.728-140.885-169.604c1.934-8.419,2.991-17.177,2.991-26.185
	c0-64.335-52.157-116.491-116.493-116.491c-21.735,0-42.069,5.969-59.482,16.333C888.388,98.951,772.458,0,633.399,0
	C474.964,0,346.54,128.431,346.54,286.859c0,8.472,0.389,16.854,1.109,25.14c-36.464-28.157-82.153-44.951-131.789-44.951
	C96.645,267.048,0,363.696,0,482.912C0,594.67,84.925,686.591,193.76,697.661l-0.781,1.118h876.86l-0.408-0.572
	C1158.435,691.335,1228.529,616.992,1228.529,526.225z"/>
</svg>