<!-- Generator: Adobe Illustrator 22.1.0, SVG Export Plug-In  -->
<svg version="1.1"
	 xmlns="http://www.w3.org/2000/svg" xmlns:xlink="http://www.w3.org/1999/xlink" xmlns:a="http://ns.adobe.com/AdobeSVGViewerExtensions/3.0/"
	 x="0px" y="0px" width="1251.529px" height="715.777px" viewBox="0 0 1251.529 715.777"
	 style="enable-background:new 0 0 1251.529 715.777;" xml:space="preserve">
<style type="text/css">
	.st0{fill:#D6D6D6;}
	.st1{fill:#C5F7FF;}
</style>
<defs>
</defs>
<g>
	<path class="st0" d="M23,497.765c0-120.407,97.607-218.013,218.011-218.013c32.23,0,62.794,7.048,90.321,19.598
		C333.744,143.004,461.211,17,618.131,17c133.608,0,245.875,91.338,277.775,214.977c31.418-14.003,66.209-21.801,102.828-21.801
		c139.613,0,252.795,113.184,252.795,252.802c0,138.06-110.676,250.256-248.14,252.741l0.018,0.059H232.68l0.065-0.209
		C116.177,711.217,23,615.398,23,497.765z"/>
	<path class="st1" d="M0,480.765c0-120.407,97.607-218.013,218.011-218.013c32.23,0,62.794,7.048,90.321,19.598
		C310.744,126.004,438.211,0,595.131,0c133.608,0,245.875,91.338,277.775,214.977c31.418-14.003,66.209-21.801,102.828-21.801
		c139.613,0,252.795,113.184,252.795,252.802c0,138.06-110.676,250.256-248.14,252.741l0.018,0.059H209.68l0.065-0.209
		C93.177,694.217,0,598.398,0,480.765z"/>
</g>
</svg>