<!-- Generator: Adobe Illustrator 22.0.1, SVG Export Plug-In  -->
<svg version="1.1"
	 xmlns="http://www.w3.org/2000/svg" xmlns:xlink="http://www.w3.org/1999/xlink" xmlns:a="http://ns.adobe.com/AdobeSVGViewerExtensions/3.0/"
	 x="0px" y="0px" width="1251.53px" height="715.778px" viewBox="0 0 1251.53 715.778"
	 style="enable-background:new 0 0 1251.53 715.778;" xml:space="preserve">
<style type="text/css">
	.st0{fill:#9FFFC6;}
</style>
<defs>
</defs>
<g>
	<path class="st0" d="M1251.53,543.225c0-84.477-60.721-154.729-140.885-169.604c1.936-8.42,2.991-17.176,2.991-26.185
		c0-64.335-52.156-116.492-116.492-116.492c-21.735,0-42.067,5.968-59.481,16.334C911.389,115.951,795.457,17,656.4,17
		c-97.008,0-182.755,48.157-234.67,121.857c-25.896-18.532-57.594-29.475-91.867-29.475c-87.31,0-158.083,70.776-158.083,158.084
		c0,9.037,0.799,17.881,2.255,26.503C86.497,321.498,23,403.285,23,499.911c0,111.76,84.926,203.679,193.761,214.75l-0.782,1.117
		h876.862l-0.409-0.572C1181.435,708.334,1251.53,633.992,1251.53,543.225z"/>
	<path class="st0" d="M1228.53,526.225c0-84.477-60.721-154.729-140.885-169.604c1.936-8.42,2.991-17.176,2.991-26.185
		c0-64.335-52.156-116.492-116.492-116.492c-21.735,0-42.067,5.968-59.481,16.334C888.389,98.951,772.457,0,633.4,0
		c-97.008,0-182.755,48.157-234.67,121.857c-25.896-18.532-57.594-29.475-91.867-29.475c-87.31,0-158.083,70.776-158.083,158.084
		c0,9.037,0.799,17.881,2.255,26.503C63.497,304.498,0,386.285,0,482.911c0,111.76,84.926,203.679,193.761,214.75l-0.782,1.117
		h876.862l-0.409-0.572C1158.435,691.334,1228.53,616.992,1228.53,526.225z"/>
</g>
</svg>